<svg width="499" height="154" viewBox="0 0 499 154" fill="none" xmlns="http://www.w3.org/2000/svg">
<path d="M111.056 139H64.2004V79.2004H124V126.056C124 133.205 118.205 139 111.056 139Z" fill="url(#paint0_linear_10_3176)"/>
<path d="M124 75.0585H64.2004V15H111.056C118.205 15 124 20.7951 124 27.9436V75.0585Z" fill="url(#paint1_linear_10_3176)"/>
<path d="M60.0585 75.0585V15H12.9436C5.79506 15 0 20.7951 0 27.9436V75.0585H60.0585Z" fill="url(#paint2_linear_10_3176)"/>
<path d="M0 79.2004V126.056C0 133.205 5.79506 139 12.9436 139H60.0585V79.2004H0Z" fill="url(#paint3_linear_10_3176)"/>
<path fill-rule="evenodd" clip-rule="evenodd" d="M64.3539 45.2557C62.9343 46.4327 61.6556 47.7909 60.5321 49.1991C59.3528 48.6111 58.1035 48.1128 56.8158 47.7292C51.9503 46.2794 44.5585 46.0514 39.3111 51.9176C35.7921 55.8515 34.5232 60.6499 35.9894 65.4829C37.2315 69.5773 40.1755 72.7449 42.6885 74.9753C45.3345 77.3237 48.4402 79.432 51.1421 81.1891C52.0513 81.7803 52.896 82.3207 53.6827 82.824L53.6833 82.8244C55.4201 83.9355 56.8746 84.866 58.1181 85.7647L58.8158 86.269C47.75 90.5024 36.3628 92.4371 29.9444 85.9013C29.6398 85.5911 29.0914 85.7328 29.0062 86.1592L28.0417 90.9908C27.9933 91.2329 27.7808 91.4072 27.5339 91.4072H21.9474C21.5317 91.4072 21.2867 91.8672 21.5368 92.1993C26.4597 98.7367 38.8875 107.47 53.8027 95.289C73.2118 79.4382 86.313 85.7462 89.2244 91.4072C91.3396 95.5202 90.0575 103.413 88.9157 107.816C88.7993 108.265 89.2793 108.644 89.6803 108.411C91.2359 107.507 92.4845 106.687 93.9017 105.744C94.1498 105.578 94.4861 105.656 94.6364 105.913C95.3386 107.116 96.0648 108.353 96.9966 109.878C97.206 110.221 97.7082 110.203 97.891 109.846C101.624 102.543 105.092 93.5546 101.193 86.0697C97.672 79.3088 86.9175 75.6154 74.9069 79.3639C76.323 78.0693 77.6838 76.7244 78.9829 75.3599C81.9807 72.2111 85.7918 68.0086 87.8976 63.4753C88.9962 61.1103 89.8658 58.177 89.5844 54.9383C89.2878 51.5244 87.771 48.4694 85.2773 45.9786C82.12 42.825 78.2185 41.016 73.9011 41.2389C69.876 41.4468 66.6287 43.3698 64.3539 45.2557ZM57.3881 76.5887C59.2217 77.7619 60.9466 78.8656 62.364 79.89C66.3589 77.4292 70.2056 74.0671 73.7332 70.3619C79.8329 63.9548 85.7345 56.6801 80.1549 51.107C75.007 45.9651 69.8932 49.2061 66.399 53.4708C64.4743 55.8201 63.0409 58.48 62.364 60.2205C61.5572 58.4361 59.3214 56.5583 56.6059 55.3612C52.6905 53.6352 47.7779 53.3245 44.7135 56.7502C38.0411 64.2094 48.883 71.1466 57.3881 76.5887Z" fill="#FAFAFA"/>
<path d="M147.392 65.888H159.584V103.328L153.92 104.096C151.936 104.096 150.336 103.52 149.12 102.368C147.968 101.152 147.392 99.584 147.392 97.664V65.888ZM153.92 104.096V94.112H184.448C184.832 94.624 185.152 95.296 185.408 96.128C185.728 96.96 185.888 97.888 185.888 98.912C185.888 100.64 185.472 101.952 184.64 102.848C183.872 103.68 182.816 104.096 181.472 104.096H153.92ZM159.584 79.52H147.392V45.728C147.968 45.6 148.768 45.44 149.792 45.248C150.88 45.056 151.968 44.96 153.056 44.96C155.36 44.96 157.024 45.376 158.048 46.208C159.072 46.976 159.584 48.448 159.584 50.624V79.52ZM238.407 81.248C238.407 86.176 237.447 90.464 235.527 94.112C233.607 97.696 230.887 100.48 227.367 102.464C223.911 104.384 219.815 105.344 215.079 105.344C210.343 105.344 206.215 104.384 202.695 102.464C199.175 100.48 196.423 97.696 194.439 94.112C192.519 90.528 191.559 86.24 191.559 81.248C191.559 76.32 192.551 72.064 194.535 68.48C196.519 64.896 199.271 62.144 202.791 60.224C206.311 58.24 210.407 57.248 215.079 57.248C219.751 57.248 223.815 58.24 227.271 60.224C230.791 62.144 233.511 64.928 235.431 68.576C237.415 72.16 238.407 76.384 238.407 81.248ZM215.079 66.656C211.559 66.656 208.775 67.936 206.727 70.496C204.743 73.056 203.751 76.64 203.751 81.248C203.751 85.984 204.743 89.632 206.727 92.192C208.711 94.688 211.495 95.936 215.079 95.936C218.599 95.936 221.351 94.656 223.335 92.096C225.319 89.536 226.311 85.92 226.311 81.248C226.311 76.704 225.319 73.152 223.335 70.592C221.351 67.968 218.599 66.656 215.079 66.656ZM282.34 57.632C284.004 57.632 285.38 58.016 286.468 58.784C287.556 59.552 288.1 60.768 288.1 62.432C288.1 63.456 287.748 65.184 287.044 67.616C286.404 69.984 285.54 72.768 284.452 75.968C283.364 79.168 282.148 82.464 280.804 85.856C279.524 89.248 278.212 92.48 276.868 95.552C275.524 98.56 274.308 101.088 273.22 103.136C272.644 103.584 271.716 103.968 270.436 104.288C269.22 104.608 267.844 104.768 266.308 104.768C264.516 104.768 262.98 104.512 261.7 104C260.42 103.552 259.524 102.816 259.012 101.792C258.308 100.448 257.412 98.56 256.324 96.128C255.3 93.696 254.18 90.912 252.964 87.776C251.748 84.64 250.532 81.408 249.316 78.08C248.1 74.752 246.98 71.552 245.956 68.48C244.996 65.408 244.196 62.688 243.556 60.32C244.26 59.552 245.156 58.912 246.244 58.4C247.396 57.888 248.58 57.632 249.796 57.632C251.46 57.632 252.804 58.016 253.828 58.784C254.916 59.488 255.716 60.8 256.228 62.72L261.124 78.752C261.636 80.416 262.212 82.24 262.852 84.224C263.556 86.144 264.196 88 264.772 89.792C265.348 91.52 265.828 92.992 266.212 94.208H266.596C268.516 88.576 270.372 82.72 272.164 76.64C274.02 70.56 275.62 64.64 276.964 58.88C278.5 58.048 280.292 57.632 282.34 57.632ZM301.609 87.296L301.129 79.04L326.857 75.2C326.665 72.768 325.737 70.656 324.073 68.864C322.409 67.072 319.977 66.176 316.777 66.176C313.513 66.176 310.793 67.328 308.617 69.632C306.441 71.872 305.321 75.104 305.257 79.328L305.545 84.32C306.121 88.416 307.689 91.424 310.249 93.344C312.873 95.264 316.169 96.224 320.137 96.224C322.825 96.224 325.321 95.84 327.625 95.072C329.929 94.24 331.753 93.344 333.097 92.384C333.993 92.96 334.697 93.696 335.209 94.592C335.785 95.424 336.073 96.352 336.073 97.376C336.073 99.04 335.337 100.48 333.865 101.696C332.393 102.848 330.409 103.744 327.913 104.384C325.417 105.024 322.569 105.344 319.369 105.344C314.441 105.344 310.057 104.448 306.217 102.656C302.441 100.8 299.465 98.048 297.289 94.4C295.177 90.752 294.121 86.208 294.121 80.768C294.121 76.864 294.729 73.44 295.945 70.496C297.161 67.552 298.793 65.12 300.841 63.2C302.953 61.216 305.385 59.744 308.137 58.784C310.889 57.76 313.769 57.248 316.777 57.248C321.001 57.248 324.681 58.112 327.817 59.84C331.017 61.504 333.513 63.84 335.305 66.848C337.161 69.856 338.089 73.312 338.089 77.216C338.089 79.008 337.609 80.352 336.649 81.248C335.753 82.08 334.473 82.592 332.809 82.784L301.609 87.296ZM370.365 57.248C374.461 57.248 378.141 58.144 381.405 59.936C384.733 61.664 387.357 64.32 389.277 67.904C391.197 71.424 392.157 75.84 392.157 81.152C392.157 86.528 391.133 91.008 389.085 94.592C387.101 98.176 384.285 100.864 380.637 102.656C377.053 104.448 372.861 105.344 368.061 105.344C364.413 105.344 361.213 104.896 358.461 104C355.773 103.168 353.501 102.176 351.645 101.024C350.301 100.064 349.309 99.104 348.669 98.144C348.093 97.12 347.805 95.872 347.805 94.4V63.392H359.613V93.632C360.445 94.208 361.565 94.752 362.973 95.264C364.445 95.712 366.109 95.936 367.965 95.936C371.613 95.936 374.525 94.72 376.701 92.288C378.941 89.856 380.061 86.144 380.061 81.152C380.061 76.096 378.973 72.416 376.797 70.112C374.621 67.808 371.773 66.656 368.253 66.656C366.013 66.656 364.029 67.072 362.301 67.904C360.573 68.736 359.101 69.696 357.885 70.784L357.117 61.184C358.589 60.288 360.413 59.424 362.589 58.592C364.829 57.696 367.421 57.248 370.365 57.248ZM359.613 66.08H347.805V41.6C348.317 41.472 349.053 41.312 350.013 41.12C350.973 40.928 352.029 40.832 353.181 40.832C355.421 40.832 357.053 41.248 358.077 42.08C359.101 42.848 359.613 44.256 359.613 46.304V66.08ZM446.813 81.248C446.813 86.176 445.853 90.464 443.933 94.112C442.013 97.696 439.293 100.48 435.773 102.464C432.317 104.384 428.221 105.344 423.485 105.344C418.749 105.344 414.621 104.384 411.101 102.464C407.581 100.48 404.829 97.696 402.845 94.112C400.925 90.528 399.965 86.24 399.965 81.248C399.965 76.32 400.957 72.064 402.941 68.48C404.925 64.896 407.677 62.144 411.197 60.224C414.717 58.24 418.813 57.248 423.485 57.248C428.157 57.248 432.221 58.24 435.677 60.224C439.197 62.144 441.917 64.928 443.837 68.576C445.821 72.16 446.813 76.384 446.813 81.248ZM423.485 66.656C419.965 66.656 417.181 67.936 415.133 70.496C413.149 73.056 412.157 76.64 412.157 81.248C412.157 85.984 413.149 89.632 415.133 92.192C417.117 94.688 419.901 95.936 423.485 95.936C427.005 95.936 429.757 94.656 431.741 92.096C433.725 89.536 434.717 85.92 434.717 81.248C434.717 76.704 433.725 73.152 431.741 70.592C429.757 67.968 427.005 66.656 423.485 66.656ZM470.761 76.64L472.873 76.256C475.305 73.12 477.609 70.112 479.785 67.232C482.025 64.288 484.329 61.184 486.697 57.92C486.953 57.856 487.177 57.824 487.369 57.824C487.561 57.824 487.753 57.824 487.945 57.824C490.121 57.824 491.817 58.304 493.033 59.264C494.313 60.224 494.953 61.44 494.953 62.912C494.953 64.064 494.665 65.12 494.089 66.08C493.577 67.04 492.649 68.32 491.305 69.92C489.385 72.16 487.433 74.432 485.449 76.736C483.529 78.976 481.641 81.216 479.785 83.456L476.137 85.472C473.897 88.608 471.593 91.808 469.225 95.072C466.921 98.272 464.649 101.44 462.409 104.576C462.153 104.576 461.865 104.576 461.545 104.576C461.289 104.64 461.033 104.672 460.777 104.672C458.473 104.672 456.713 104.192 455.497 103.232C454.281 102.208 453.673 100.992 453.673 99.584C453.673 98.56 453.897 97.632 454.345 96.8C454.793 95.904 455.689 94.688 457.033 93.152C459.209 90.4 461.449 87.68 463.753 84.992C466.121 82.24 468.457 79.456 470.761 76.64ZM477.769 77.504L480.457 79.04C482.953 82.368 485.481 85.696 488.041 89.024C490.665 92.352 493.225 95.68 495.721 99.008C495.529 100.8 494.857 102.208 493.705 103.232C492.553 104.256 491.145 104.768 489.481 104.768C487.817 104.768 486.441 104.32 485.353 103.424C484.329 102.464 483.241 101.216 482.089 99.68C480.361 97.248 478.569 94.72 476.713 92.096C474.921 89.472 473.161 86.976 471.433 84.608L469.129 82.784C466.377 79.584 463.721 76.448 461.161 73.376C458.665 70.24 456.137 67.104 453.577 63.968C453.961 62.112 454.697 60.64 455.785 59.552C456.873 58.4 458.217 57.824 459.817 57.824C461.417 57.824 462.633 58.24 463.465 59.072C464.361 59.84 465.321 60.896 466.345 62.24C468.137 64.608 469.961 67.104 471.817 69.728C473.737 72.352 475.721 74.944 477.769 77.504Z" fill="#FAFAFA"/>
<defs>
<linearGradient id="paint0_linear_10_3176" x1="62" y1="15" x2="62" y2="139" gradientUnits="userSpaceOnUse">
<stop stop-color="#4861E2"/>
<stop offset="1" stop-color="#6748E2"/>
</linearGradient>
<linearGradient id="paint1_linear_10_3176" x1="62" y1="15" x2="62" y2="139" gradientUnits="userSpaceOnUse">
<stop stop-color="#4861E2"/>
<stop offset="1" stop-color="#6748E2"/>
</linearGradient>
<linearGradient id="paint2_linear_10_3176" x1="62" y1="15" x2="62" y2="139" gradientUnits="userSpaceOnUse">
<stop stop-color="#4861E2"/>
<stop offset="1" stop-color="#6748E2"/>
</linearGradient>
<linearGradient id="paint3_linear_10_3176" x1="62" y1="15" x2="62" y2="139" gradientUnits="userSpaceOnUse">
<stop stop-color="#4861E2"/>
<stop offset="1" stop-color="#6748E2"/>
</linearGradient>
</defs>
</svg>
