<svg width="500" height="154" viewBox="0 0 500 154" fill="none" xmlns="http://www.w3.org/2000/svg">
<path d="M111.556 139H64.7004V79.2004H124.5V126.056C124.5 133.205 118.705 139 111.556 139Z" fill="#FAFAFA"/>
<path d="M124.5 75.0585H64.7004V15H111.556C118.705 15 124.5 20.7951 124.5 27.9436V75.0585Z" fill="#FAFAFA"/>
<path d="M60.5585 75.0585V15H13.4436C6.29506 15 0.5 20.7951 0.5 27.9436V75.0585H60.5585Z" fill="#FAFAFA"/>
<path d="M0.5 79.2004V126.056C0.5 133.205 6.29506 139 13.4436 139H60.5585V79.2004H0.5Z" fill="#FAFAFA"/>
<path fill-rule="evenodd" clip-rule="evenodd" d="M64.8539 45.2557C63.4343 46.4327 62.1556 47.7909 61.0321 49.1991C59.8528 48.6111 58.6035 48.1128 57.3158 47.7292C52.4503 46.2794 45.0585 46.0514 39.8111 51.9176C36.2921 55.8515 35.0232 60.6499 36.4894 65.4829C37.7315 69.5773 40.6755 72.7449 43.1885 74.9753C45.8345 77.3237 48.9402 79.432 51.6421 81.1891C52.5513 81.7803 53.396 82.3207 54.1827 82.824L54.1833 82.8244C55.9201 83.9355 57.3746 84.866 58.6181 85.7647L59.3158 86.269C48.25 90.5024 36.8628 92.4371 30.4444 85.9013C30.1398 85.5911 29.5914 85.7328 29.5062 86.1592L28.5417 90.9908C28.4933 91.2329 28.2808 91.4072 28.0339 91.4072H22.4474C22.0317 91.4072 21.7867 91.8672 22.0368 92.1993C26.9597 98.7367 39.3875 107.47 54.3027 95.289C73.7118 79.4382 86.813 85.7462 89.7244 91.4072C91.8396 95.5202 90.5575 103.413 89.4157 107.816C89.2993 108.265 89.7793 108.644 90.1803 108.411C91.7359 107.507 92.9845 106.687 94.4017 105.744C94.6498 105.578 94.9861 105.656 95.1364 105.913C95.8386 107.116 96.5648 108.353 97.4966 109.878C97.706 110.221 98.2082 110.203 98.391 109.846C102.124 102.543 105.592 93.5546 101.693 86.0697C98.172 79.3088 87.4175 75.6154 75.4069 79.3639C76.823 78.0693 78.1838 76.7244 79.4829 75.3599C82.4807 72.2111 86.2918 68.0086 88.3976 63.4753C89.4962 61.1103 90.3658 58.177 90.0844 54.9383C89.7878 51.5244 88.271 48.4694 85.7773 45.9786C82.62 42.825 78.7185 41.016 74.4011 41.2389C70.376 41.4468 67.1287 43.3698 64.8539 45.2557ZM57.8881 76.5887C59.7217 77.7619 61.4466 78.8656 62.864 79.89C66.8589 77.4292 70.7056 74.0671 74.2332 70.3619C80.3329 63.9548 86.2345 56.6801 80.6549 51.107C75.507 45.9651 70.3932 49.2061 66.899 53.4708C64.9743 55.8201 63.5409 58.48 62.864 60.2205C62.0572 58.4361 59.8214 56.5583 57.1059 55.3612C53.1905 53.6352 48.2779 53.3245 45.2135 56.7502C38.5411 64.2094 49.383 71.1466 57.8881 76.5887Z" fill="#644AE2"/>
<path d="M147.892 65.888H160.084V103.328L154.42 104.096C152.436 104.096 150.836 103.52 149.62 102.368C148.468 101.152 147.892 99.584 147.892 97.664V65.888ZM154.42 104.096V94.112H184.948C185.332 94.624 185.652 95.296 185.908 96.128C186.228 96.96 186.388 97.888 186.388 98.912C186.388 100.64 185.972 101.952 185.14 102.848C184.372 103.68 183.316 104.096 181.972 104.096H154.42ZM160.084 79.52H147.892V45.728C148.468 45.6 149.268 45.44 150.292 45.248C151.38 45.056 152.468 44.96 153.556 44.96C155.86 44.96 157.524 45.376 158.548 46.208C159.572 46.976 160.084 48.448 160.084 50.624V79.52ZM238.907 81.248C238.907 86.176 237.947 90.464 236.027 94.112C234.107 97.696 231.387 100.48 227.867 102.464C224.411 104.384 220.315 105.344 215.579 105.344C210.843 105.344 206.715 104.384 203.195 102.464C199.675 100.48 196.923 97.696 194.939 94.112C193.019 90.528 192.059 86.24 192.059 81.248C192.059 76.32 193.051 72.064 195.035 68.48C197.019 64.896 199.771 62.144 203.291 60.224C206.811 58.24 210.907 57.248 215.579 57.248C220.251 57.248 224.315 58.24 227.771 60.224C231.291 62.144 234.011 64.928 235.931 68.576C237.915 72.16 238.907 76.384 238.907 81.248ZM215.579 66.656C212.059 66.656 209.275 67.936 207.227 70.496C205.243 73.056 204.251 76.64 204.251 81.248C204.251 85.984 205.243 89.632 207.227 92.192C209.211 94.688 211.995 95.936 215.579 95.936C219.099 95.936 221.851 94.656 223.835 92.096C225.819 89.536 226.811 85.92 226.811 81.248C226.811 76.704 225.819 73.152 223.835 70.592C221.851 67.968 219.099 66.656 215.579 66.656ZM282.84 57.632C284.504 57.632 285.88 58.016 286.968 58.784C288.056 59.552 288.6 60.768 288.6 62.432C288.6 63.456 288.248 65.184 287.544 67.616C286.904 69.984 286.04 72.768 284.952 75.968C283.864 79.168 282.648 82.464 281.304 85.856C280.024 89.248 278.712 92.48 277.368 95.552C276.024 98.56 274.808 101.088 273.72 103.136C273.144 103.584 272.216 103.968 270.936 104.288C269.72 104.608 268.344 104.768 266.808 104.768C265.016 104.768 263.48 104.512 262.2 104C260.92 103.552 260.024 102.816 259.512 101.792C258.808 100.448 257.912 98.56 256.824 96.128C255.8 93.696 254.68 90.912 253.464 87.776C252.248 84.64 251.032 81.408 249.816 78.08C248.6 74.752 247.48 71.552 246.456 68.48C245.496 65.408 244.696 62.688 244.056 60.32C244.76 59.552 245.656 58.912 246.744 58.4C247.896 57.888 249.08 57.632 250.296 57.632C251.96 57.632 253.304 58.016 254.328 58.784C255.416 59.488 256.216 60.8 256.728 62.72L261.624 78.752C262.136 80.416 262.712 82.24 263.352 84.224C264.056 86.144 264.696 88 265.272 89.792C265.848 91.52 266.328 92.992 266.712 94.208H267.096C269.016 88.576 270.872 82.72 272.664 76.64C274.52 70.56 276.12 64.64 277.464 58.88C279 58.048 280.792 57.632 282.84 57.632ZM302.109 87.296L301.629 79.04L327.357 75.2C327.165 72.768 326.237 70.656 324.573 68.864C322.909 67.072 320.477 66.176 317.277 66.176C314.013 66.176 311.293 67.328 309.117 69.632C306.941 71.872 305.821 75.104 305.757 79.328L306.045 84.32C306.621 88.416 308.189 91.424 310.749 93.344C313.373 95.264 316.669 96.224 320.637 96.224C323.325 96.224 325.821 95.84 328.125 95.072C330.429 94.24 332.253 93.344 333.597 92.384C334.493 92.96 335.197 93.696 335.709 94.592C336.285 95.424 336.573 96.352 336.573 97.376C336.573 99.04 335.837 100.48 334.365 101.696C332.893 102.848 330.909 103.744 328.413 104.384C325.917 105.024 323.069 105.344 319.869 105.344C314.941 105.344 310.557 104.448 306.717 102.656C302.941 100.8 299.965 98.048 297.789 94.4C295.677 90.752 294.621 86.208 294.621 80.768C294.621 76.864 295.229 73.44 296.445 70.496C297.661 67.552 299.293 65.12 301.341 63.2C303.453 61.216 305.885 59.744 308.637 58.784C311.389 57.76 314.269 57.248 317.277 57.248C321.501 57.248 325.181 58.112 328.317 59.84C331.517 61.504 334.013 63.84 335.805 66.848C337.661 69.856 338.589 73.312 338.589 77.216C338.589 79.008 338.109 80.352 337.149 81.248C336.253 82.08 334.973 82.592 333.309 82.784L302.109 87.296ZM370.865 57.248C374.961 57.248 378.641 58.144 381.905 59.936C385.233 61.664 387.857 64.32 389.777 67.904C391.697 71.424 392.657 75.84 392.657 81.152C392.657 86.528 391.633 91.008 389.585 94.592C387.601 98.176 384.785 100.864 381.137 102.656C377.553 104.448 373.361 105.344 368.561 105.344C364.913 105.344 361.713 104.896 358.961 104C356.273 103.168 354.001 102.176 352.145 101.024C350.801 100.064 349.809 99.104 349.169 98.144C348.593 97.12 348.305 95.872 348.305 94.4V63.392H360.113V93.632C360.945 94.208 362.065 94.752 363.473 95.264C364.945 95.712 366.609 95.936 368.465 95.936C372.113 95.936 375.025 94.72 377.201 92.288C379.441 89.856 380.561 86.144 380.561 81.152C380.561 76.096 379.473 72.416 377.297 70.112C375.121 67.808 372.273 66.656 368.753 66.656C366.513 66.656 364.529 67.072 362.801 67.904C361.073 68.736 359.601 69.696 358.385 70.784L357.617 61.184C359.089 60.288 360.913 59.424 363.089 58.592C365.329 57.696 367.921 57.248 370.865 57.248ZM360.113 66.08H348.305V41.6C348.817 41.472 349.553 41.312 350.513 41.12C351.473 40.928 352.529 40.832 353.681 40.832C355.921 40.832 357.553 41.248 358.577 42.08C359.601 42.848 360.113 44.256 360.113 46.304V66.08ZM447.313 81.248C447.313 86.176 446.353 90.464 444.433 94.112C442.513 97.696 439.793 100.48 436.273 102.464C432.817 104.384 428.721 105.344 423.985 105.344C419.249 105.344 415.121 104.384 411.601 102.464C408.081 100.48 405.329 97.696 403.345 94.112C401.425 90.528 400.465 86.24 400.465 81.248C400.465 76.32 401.457 72.064 403.441 68.48C405.425 64.896 408.177 62.144 411.697 60.224C415.217 58.24 419.313 57.248 423.985 57.248C428.657 57.248 432.721 58.24 436.177 60.224C439.697 62.144 442.417 64.928 444.337 68.576C446.321 72.16 447.313 76.384 447.313 81.248ZM423.985 66.656C420.465 66.656 417.681 67.936 415.633 70.496C413.649 73.056 412.657 76.64 412.657 81.248C412.657 85.984 413.649 89.632 415.633 92.192C417.617 94.688 420.401 95.936 423.985 95.936C427.505 95.936 430.257 94.656 432.241 92.096C434.225 89.536 435.217 85.92 435.217 81.248C435.217 76.704 434.225 73.152 432.241 70.592C430.257 67.968 427.505 66.656 423.985 66.656ZM471.261 76.64L473.373 76.256C475.805 73.12 478.109 70.112 480.285 67.232C482.525 64.288 484.829 61.184 487.197 57.92C487.453 57.856 487.677 57.824 487.869 57.824C488.061 57.824 488.253 57.824 488.445 57.824C490.621 57.824 492.317 58.304 493.533 59.264C494.813 60.224 495.453 61.44 495.453 62.912C495.453 64.064 495.165 65.12 494.589 66.08C494.077 67.04 493.149 68.32 491.805 69.92C489.885 72.16 487.933 74.432 485.949 76.736C484.029 78.976 482.141 81.216 480.285 83.456L476.637 85.472C474.397 88.608 472.093 91.808 469.725 95.072C467.421 98.272 465.149 101.44 462.909 104.576C462.653 104.576 462.365 104.576 462.045 104.576C461.789 104.64 461.533 104.672 461.277 104.672C458.973 104.672 457.213 104.192 455.997 103.232C454.781 102.208 454.173 100.992 454.173 99.584C454.173 98.56 454.397 97.632 454.845 96.8C455.293 95.904 456.189 94.688 457.533 93.152C459.709 90.4 461.949 87.68 464.253 84.992C466.621 82.24 468.957 79.456 471.261 76.64ZM478.269 77.504L480.957 79.04C483.453 82.368 485.981 85.696 488.541 89.024C491.165 92.352 493.725 95.68 496.221 99.008C496.029 100.8 495.357 102.208 494.205 103.232C493.053 104.256 491.645 104.768 489.981 104.768C488.317 104.768 486.941 104.32 485.853 103.424C484.829 102.464 483.741 101.216 482.589 99.68C480.861 97.248 479.069 94.72 477.213 92.096C475.421 89.472 473.661 86.976 471.933 84.608L469.629 82.784C466.877 79.584 464.221 76.448 461.661 73.376C459.165 70.24 456.637 67.104 454.077 63.968C454.461 62.112 455.197 60.64 456.285 59.552C457.373 58.4 458.717 57.824 460.317 57.824C461.917 57.824 463.133 58.24 463.965 59.072C464.861 59.84 465.821 60.896 466.845 62.24C468.637 64.608 470.461 67.104 472.317 69.728C474.237 72.352 476.221 74.944 478.269 77.504Z" fill="#FAFAFA"/>
</svg>
