<svg width="900" height="900" viewBox="0 0 900 900" fill="none" xmlns="http://www.w3.org/2000/svg">
<ellipse cx="129.9" cy="130.017" rx="129.9" ry="130.017" transform="matrix(-0.959005 0.283391 -0.292552 -0.95625 701.897 400.97)" fill="#644AE2" fill-opacity="0.07"/>
<ellipse cx="143.074" cy="143.945" rx="143.074" ry="143.945" transform="matrix(-0.959005 0.283391 -0.292552 -0.95625 635.404 497.638)" fill="#644AE2" fill-opacity="0.07"/>
<ellipse cx="162.173" cy="162.318" rx="162.173" ry="162.318" transform="matrix(-0.959005 0.283391 -0.292552 -0.95625 574.549 397.549)" fill="#644AE2" fill-opacity="0.07"/>
<ellipse cx="116.387" cy="115.749" rx="116.387" ry="115.749" transform="matrix(-0.959005 0.283391 -0.292552 -0.95625 740.9 579.343)" fill="#644AE2" fill-opacity="0.07"/>
<ellipse cx="116.387" cy="115.749" rx="116.387" ry="115.749" transform="matrix(-0.959005 0.283391 -0.292552 -0.95625 770.603 430.11)" fill="#644AE2" fill-opacity="0.07"/>
<ellipse cx="116.935" cy="115.203" rx="116.935" ry="115.203" transform="matrix(-0.954297 -0.298859 0.294642 -0.955608 557.974 674.562)" fill="#644AE2" fill-opacity="0.07"/>
<ellipse cx="205.276" cy="205.461" rx="205.276" ry="205.461" transform="matrix(-0.959005 0.283391 -0.292552 -0.95625 610.14 642.227)" fill="#644AE2" fill-opacity="0.07"/>
</svg>
