<svg width="208" height="52" viewBox="0 0 208 52" fill="none" xmlns="http://www.w3.org/2000/svg">
<g clip-path="url(#clip0_10_3154)">
<mask id="mask0_10_3154" style="mask-type:luminance" maskUnits="userSpaceOnUse" x="0" y="0" width="208" height="52">
<path d="M208 0H0V52H208V0Z" fill="white"/>
</mask>
<g mask="url(#mask0_10_3154)">
<path d="M40.9113 47.4007H25.3718V27.5684H45.204V43.108C45.204 45.4787 43.282 47.4007 40.9113 47.4007Z" fill="#644AE2"/>
<path d="M45.204 26.1948H25.3718V6.27686H40.9113C43.282 6.27686 45.204 8.19874 45.204 10.5695V26.1948Z" fill="#644AE2"/>
<path d="M23.9981 26.1948V6.27686H8.37275C6.00196 6.27686 4.08008 8.19874 4.08008 10.5695V26.1948H23.9981Z" fill="#644AE2"/>
<path d="M4.08008 27.5684V43.108C4.08008 45.4787 6.00196 47.4007 8.37275 47.4007H23.9981V27.5684H4.08008Z" fill="#644AE2"/>
<path fill-rule="evenodd" clip-rule="evenodd" d="M25.4226 16.3109C24.9519 16.7013 24.5277 17.1517 24.1552 17.6187C23.764 17.4237 23.3497 17.2584 22.9228 17.1313C21.3091 16.6504 18.8577 16.5748 17.1174 18.5203C15.9503 19.8249 15.5295 21.4162 16.0157 23.0192C16.4277 24.3771 17.4041 25.4276 18.2374 26.1672C19.115 26.946 20.145 27.6453 21.041 28.2281C21.3426 28.424 21.6228 28.6033 21.8836 28.7702C22.4596 29.1386 22.9422 29.4474 23.3545 29.7455L23.586 29.9127C19.916 31.3167 16.1396 31.9583 14.011 29.7908C13.9099 29.6879 13.728 29.7349 13.6998 29.8763L13.3799 31.4787C13.3639 31.5589 13.2934 31.6168 13.2116 31.6168H11.3588C11.2209 31.6168 11.1397 31.7693 11.2226 31.8795C12.8553 34.0476 16.9768 36.9438 21.9234 32.9042C28.3603 27.6474 32.7053 29.7393 33.6708 31.6168C34.3723 32.9809 33.9471 35.5983 33.5685 37.0587C33.5298 37.2076 33.689 37.3333 33.822 37.256C34.3379 36.9562 34.7519 36.6843 35.2219 36.3714C35.3043 36.3166 35.4159 36.3423 35.4657 36.4276C35.6985 36.8265 35.9394 37.2367 36.2484 37.7426C36.3178 37.8563 36.4844 37.8504 36.5451 37.7318C37.7829 35.3098 38.9331 32.3289 37.6403 29.8466C36.4725 27.6044 32.9058 26.3796 28.9226 27.6227C29.3921 27.1933 29.8435 26.7473 30.2742 26.2949C31.2684 25.2505 32.5324 23.8567 33.2308 22.3534C33.5952 21.5691 33.8835 20.5962 33.7903 19.5221C33.6918 18.3898 33.1887 17.3767 32.3618 16.5506C31.3147 15.5048 30.0208 14.9048 28.5889 14.9788C27.254 15.0477 26.1771 15.6854 25.4226 16.3109ZM23.1125 26.7023C23.7206 27.0915 24.2927 27.4575 24.7627 27.7971C26.0876 26.9811 27.3634 25.8661 28.5332 24.6372C30.5562 22.5124 32.5134 20.0998 30.6629 18.2515C28.9556 16.5462 27.2597 17.6211 26.101 19.0355C25.4626 19.8145 24.9872 20.6966 24.7627 21.2738C24.4952 20.682 23.7536 20.0594 22.8532 19.6623C21.5545 19.0898 19.9254 18.9868 18.909 20.123C16.6962 22.5968 20.2919 24.8974 23.1125 26.7023Z" fill="#FAFAFA"/>
<path d="M59.6128 22.5982H64.7256V38.2988L62.3503 38.6209C61.5183 38.6209 60.8474 38.3793 60.3374 37.8962C59.8543 37.3863 59.6128 36.7288 59.6128 35.9236V22.5982ZM62.3503 38.6209V34.434H75.1524C75.3134 34.6488 75.4476 34.9306 75.555 35.2795C75.6892 35.6284 75.7563 36.0175 75.7563 36.447C75.7563 37.1716 75.5818 37.7218 75.2329 38.0975C74.9109 38.4464 74.468 38.6209 73.9044 38.6209H62.3503ZM64.7256 28.3148H59.6128V14.144C59.8543 14.0903 60.1898 14.0232 60.6192 13.9427C61.0755 13.8622 61.5318 13.8219 61.988 13.8219C62.9542 13.8219 63.652 13.9964 64.0814 14.3453C64.5109 14.6673 64.7256 15.2846 64.7256 16.1971V28.3148ZM97.7803 29.0395C97.7803 31.106 97.3777 32.9042 96.5726 34.434C95.7674 35.937 94.6267 37.1045 93.1506 37.9365C91.7013 38.7417 89.9836 39.1442 87.9976 39.1442C86.0115 39.1442 84.2804 38.7417 82.8043 37.9365C81.3282 37.1045 80.1741 35.937 79.3421 34.434C78.5369 32.9311 78.1344 31.1329 78.1344 29.0395C78.1344 26.9729 78.5504 25.1881 79.3824 23.6851C80.2144 22.1822 81.3684 21.0281 82.8446 20.2229C84.3207 19.3909 86.0384 18.9749 87.9976 18.9749C89.9568 18.9749 91.6611 19.3909 93.1104 20.2229C94.5865 21.0281 95.7271 22.1956 96.5323 23.7254C97.3643 25.2284 97.7803 26.9997 97.7803 29.0395ZM87.9976 22.9202C86.5215 22.9202 85.354 23.457 84.4951 24.5306C83.6631 25.6041 83.2471 27.1071 83.2471 29.0395C83.2471 31.0255 83.6631 32.5553 84.4951 33.6289C85.3271 34.6756 86.4946 35.1989 87.9976 35.1989C89.4737 35.1989 90.6278 34.6622 91.4598 33.5886C92.2918 32.5151 92.7078 30.9987 92.7078 29.0395C92.7078 27.1339 92.2918 25.6444 91.4598 24.5708C90.6278 23.4704 89.4737 22.9202 87.9976 22.9202ZM116.204 19.136C116.902 19.136 117.479 19.297 117.935 19.6191C118.391 19.9411 118.62 20.4511 118.62 21.1489C118.62 21.5783 118.472 22.3029 118.177 23.3228C117.908 24.3159 117.546 25.4833 117.09 26.8253C116.633 28.1672 116.124 29.5494 115.56 30.9719C115.023 32.3943 114.473 33.7497 113.909 35.0379C113.346 36.2993 112.836 37.3595 112.38 38.2183C112.138 38.4062 111.749 38.5672 111.212 38.7014C110.702 38.8356 110.125 38.9027 109.481 38.9027C108.729 38.9027 108.085 38.7953 107.549 38.5806C107.012 38.3928 106.636 38.0841 106.421 37.6547C106.126 37.0911 105.75 36.2993 105.294 35.2795C104.865 34.2596 104.395 33.0921 103.885 31.777C103.375 30.4619 102.865 29.1066 102.355 27.711C101.845 26.3153 101.376 24.9734 100.946 23.6851C100.544 22.3969 100.208 21.2562 99.9398 20.2632C100.235 19.9411 100.611 19.6728 101.067 19.458C101.55 19.2433 102.047 19.136 102.557 19.136C103.254 19.136 103.818 19.297 104.247 19.6191C104.704 19.9143 105.039 20.4645 105.254 21.2697L107.307 27.9928C107.522 28.6906 107.763 29.4555 108.032 30.2875C108.327 31.0926 108.595 31.871 108.837 32.6224C109.078 33.3471 109.28 33.9644 109.441 34.4743H109.602C110.407 32.1125 111.185 29.6568 111.937 27.1071C112.715 24.5574 113.386 22.0748 113.95 19.6593C114.594 19.3104 115.345 19.136 116.204 19.136ZM124.285 31.5757L124.083 28.1135L134.872 26.5032C134.792 25.4833 134.403 24.5977 133.705 23.8462C133.007 23.0947 131.987 22.7189 130.645 22.7189C129.277 22.7189 128.136 23.202 127.223 24.1682C126.311 25.1076 125.841 26.463 125.814 28.2343L125.935 30.3277C126.177 32.0454 126.834 33.3068 127.908 34.112C129.008 34.9171 130.39 35.3197 132.054 35.3197C133.182 35.3197 134.228 35.1587 135.194 34.8366C136.161 34.4877 136.926 34.112 137.489 33.7094C137.865 33.951 138.16 34.2596 138.375 34.6353C138.616 34.9842 138.737 35.3734 138.737 35.8028C138.737 36.5006 138.429 37.1045 137.811 37.6144C137.194 38.0975 136.362 38.4733 135.315 38.7417C134.269 39.01 133.074 39.1442 131.732 39.1442C129.666 39.1442 127.827 38.7685 126.217 38.017C124.633 37.2387 123.385 36.0846 122.473 34.5548C121.587 33.025 121.144 31.1195 121.144 28.8382C121.144 27.201 121.399 25.7651 121.909 24.5306C122.419 23.296 123.104 22.2761 123.962 21.471C124.848 20.6389 125.868 20.0217 127.022 19.6191C128.176 19.1897 129.384 18.9749 130.645 18.9749C132.417 18.9749 133.96 19.3373 135.275 20.0619C136.617 20.7597 137.664 21.7393 138.415 23.0008C139.193 24.2622 139.583 25.7115 139.583 27.3486C139.583 28.1001 139.381 28.6637 138.979 29.0395C138.603 29.3884 138.066 29.6031 137.368 29.6836L124.285 31.5757ZM153.118 18.9749C154.835 18.9749 156.378 19.3507 157.747 20.1022C159.143 20.8268 160.243 21.9406 161.048 23.4436C161.854 24.9197 162.256 26.7716 162.256 28.9992C162.256 31.2537 161.827 33.1324 160.968 34.6353C160.136 36.1383 158.955 37.2655 157.425 38.017C155.922 38.7685 154.164 39.1442 152.151 39.1442C150.622 39.1442 149.28 38.9564 148.126 38.5806C146.998 38.2317 146.046 37.8157 145.267 37.3326C144.704 36.93 144.288 36.5275 144.019 36.1249C143.778 35.6955 143.657 35.1721 143.657 34.5548V21.5515H148.609V34.2328C148.958 34.4743 149.427 34.7024 150.018 34.9171C150.635 35.105 151.333 35.1989 152.111 35.1989C153.641 35.1989 154.862 34.689 155.775 33.6691C156.714 32.6493 157.184 31.0926 157.184 28.9992C157.184 26.879 156.727 25.3357 155.815 24.3695C154.902 23.4033 153.708 22.9202 152.232 22.9202C151.292 22.9202 150.46 23.0947 149.736 23.4436C149.011 23.7925 148.394 24.1951 147.884 24.6513L147.562 20.6255C148.179 20.2498 148.944 19.8875 149.857 19.5386C150.796 19.1628 151.883 18.9749 153.118 18.9749ZM148.609 22.6787H143.657V12.4129C143.872 12.3592 144.18 12.2921 144.583 12.2116C144.985 12.1311 145.428 12.0908 145.911 12.0908C146.851 12.0908 147.535 12.2653 147.964 12.6142C148.394 12.9362 148.609 13.5267 148.609 14.3855V22.6787ZM185.177 29.0395C185.177 31.106 184.774 32.9042 183.969 34.434C183.164 35.937 182.023 37.1045 180.547 37.9365C179.098 38.7417 177.38 39.1442 175.394 39.1442C173.408 39.1442 171.677 38.7417 170.201 37.9365C168.725 37.1045 167.57 35.937 166.738 34.434C165.933 32.9311 165.531 31.1329 165.531 29.0395C165.531 26.9729 165.947 25.1881 166.779 23.6851C167.611 22.1822 168.765 21.0281 170.241 20.2229C171.717 19.3909 173.435 18.9749 175.394 18.9749C177.354 18.9749 179.058 19.3909 180.507 20.2229C181.983 21.0281 183.124 22.1956 183.929 23.7254C184.761 25.2284 185.177 26.9997 185.177 29.0395ZM175.394 22.9202C173.918 22.9202 172.751 23.457 171.892 24.5306C171.06 25.6041 170.644 27.1071 170.644 29.0395C170.644 31.0255 171.06 32.5553 171.892 33.6289C172.724 34.6756 173.891 35.1989 175.394 35.1989C176.87 35.1989 178.025 34.6622 178.857 33.5886C179.689 32.5151 180.105 30.9987 180.105 29.0395C180.105 27.1339 179.689 25.6444 178.857 24.5708C178.025 23.4704 176.87 22.9202 175.394 22.9202ZM195.22 27.1071L196.105 26.946C197.125 25.6309 198.091 24.3695 199.004 23.1618C199.943 21.9272 200.91 20.6255 201.903 19.2568C202.01 19.2299 202.104 19.2165 202.184 19.2165C202.265 19.2165 202.345 19.2165 202.426 19.2165C203.338 19.2165 204.05 19.4178 204.56 19.8204C205.096 20.2229 205.365 20.7329 205.365 21.3502C205.365 21.8333 205.244 22.2761 205.002 22.6787C204.788 23.0813 204.399 23.618 203.835 24.289C203.03 25.2284 202.211 26.1811 201.379 27.1473C200.574 28.0867 199.782 29.026 199.004 29.9654L197.474 30.8108C196.535 32.1259 195.569 33.4679 194.576 34.8366C193.609 36.1786 192.657 37.5071 191.717 38.8222C191.61 38.8222 191.489 38.8222 191.355 38.8222C191.248 38.849 191.14 38.8624 191.033 38.8624C190.067 38.8624 189.329 38.6611 188.819 38.2586C188.309 37.8291 188.054 37.3192 188.054 36.7288C188.054 36.2993 188.148 35.9102 188.336 35.5613C188.523 35.1855 188.899 34.6756 189.463 34.0315C190.375 32.8774 191.315 31.7368 192.281 30.6095C193.274 29.4555 194.254 28.288 195.22 27.1071ZM198.159 27.4694L199.286 28.1135C200.333 29.5091 201.393 30.9048 202.466 32.3004C203.567 33.696 204.64 35.0916 205.687 36.4872C205.606 37.2387 205.325 37.8291 204.841 38.2586C204.358 38.688 203.768 38.9027 203.07 38.9027C202.372 38.9027 201.795 38.7148 201.339 38.3391C200.91 37.9365 200.453 37.4131 199.97 36.769C199.246 35.7491 198.494 34.689 197.716 33.5886C196.964 32.4882 196.226 31.4415 195.502 30.4485L194.535 29.6836C193.381 28.3417 192.267 27.0266 191.194 25.7383C190.147 24.4232 189.087 23.1081 188.014 21.793C188.175 21.0147 188.483 20.3974 188.939 19.9411C189.396 19.458 189.959 19.2165 190.63 19.2165C191.301 19.2165 191.811 19.3909 192.16 19.7399C192.536 20.0619 192.938 20.5048 193.368 21.0684C194.119 22.0614 194.884 23.1081 195.663 24.2085C196.468 25.3089 197.3 26.3959 198.159 27.4694Z" fill="#644AE2"/>
</g>
</g>
<defs>
<clipPath id="clip0_10_3154">
<rect width="208" height="52" fill="white"/>
</clipPath>
</defs>
</svg>
