<svg width="64" height="65" viewBox="0 0 64 65" fill="none" xmlns="http://www.w3.org/2000/svg">
<rect x="0.000976562" y="0.265778" width="64" height="64" rx="32" fill="#E9E6FA"/>
<path d="M38.9659 44.555C38.3756 44.5549 37.8023 44.3578 37.3368 43.9948L32.047 39.8971L28.5005 43.8115C28.3444 43.9837 28.1454 44.1112 27.9239 44.1813C27.7023 44.2513 27.4662 44.2613 27.2395 44.2102C27.0128 44.1591 26.8038 44.0488 26.6337 43.8905C26.4637 43.7322 26.3387 43.5315 26.2715 43.3091L23.6196 34.5395L18.8618 32.8847C18.3482 32.7058 17.9011 32.3748 17.5801 31.9357C17.259 31.4966 17.0792 30.9702 17.0645 30.4265C17.0497 29.8827 17.2008 29.3474 17.4975 28.8916C17.7943 28.4357 18.2227 28.081 18.7259 27.8744L42.2458 18.378C42.6946 18.1956 43.1844 18.1382 43.6632 18.2119C44.142 18.2856 44.5919 18.4877 44.9651 18.7966C45.3382 19.1056 45.6206 19.5099 45.7823 19.9666C45.944 20.4232 45.9789 20.9152 45.8834 21.3901L41.6011 42.4119C41.4743 43.0172 41.1432 43.5604 40.6634 43.9506C40.1836 44.3408 39.5843 44.5542 38.9659 44.555H38.9659Z" fill="#A2A1FF"/>
<path d="M27.5278 44.2422C27.2461 44.2423 26.9719 44.1517 26.7457 43.9839C26.5195 43.816 26.3533 43.5799 26.2717 43.3103L23.4262 33.9139C23.3373 33.6211 23.3536 33.3064 23.4722 33.0243C23.5909 32.7423 23.8045 32.5106 24.0761 32.3695L37.9458 25.1481C38.2238 25.003 38.5446 24.9623 38.85 25.0334C39.1555 25.1044 39.4254 25.2825 39.6109 25.5354C39.7964 25.7883 39.8851 26.0992 39.8611 26.4119C39.8371 26.7246 39.7019 27.0183 39.48 27.2399L30.1836 36.5364L28.8134 43.1937C28.7548 43.4797 28.6025 43.738 28.3806 43.9277C28.1586 44.1174 27.8797 44.2276 27.588 44.2409C27.5675 44.2422 27.547 44.2422 27.5278 44.2422Z" fill="#6563FF"/>
</svg>
