<svg width="64" height="65" viewBox="0 0 64 65" fill="none" xmlns="http://www.w3.org/2000/svg">
<rect x="0.0012207" y="0.146118" width="64" height="64" rx="32" fill="#E9E6FA"/>
<path d="M44.88 29.8003L43.5733 35.3736C42.4533 40.187 40.24 42.1336 36.08 41.7336C35.4133 41.6803 34.6933 41.5603 33.92 41.3736L31.68 40.8403C26.12 39.5203 24.4 36.7736 25.7066 31.2003L27.0133 25.6136C27.28 24.4803 27.6 23.4936 28 22.6803C29.56 19.4536 32.2133 18.587 36.6666 19.6403L38.8933 20.1603C44.48 21.467 46.1866 24.227 44.88 29.8003Z" fill="#A2A1FF"/>
<path d="M36.08 41.7336C35.2533 42.2936 34.2133 42.7603 32.9466 43.1736L30.84 43.867C25.5466 45.5736 22.76 44.147 21.04 38.8536L19.3333 33.587C17.6266 28.2936 19.04 25.4936 24.3333 23.787L26.44 23.0936C26.9866 22.9203 27.5066 22.7736 28 22.6803C27.6 23.4936 27.28 24.4803 27.0133 25.6136L25.7066 31.2003C24.4 36.7736 26.12 39.5203 31.68 40.8403L33.92 41.3736C34.6933 41.5603 35.4133 41.6803 36.08 41.7336Z" fill="#6563FF"/>
<path d="M39.32 29.8935C39.24 29.8935 39.16 29.8802 39.0666 29.8669L32.6 28.2269C32.0666 28.0935 31.7466 27.5469 31.88 27.0135C32.0133 26.4802 32.56 26.1602 33.0933 26.2935L39.56 27.9335C40.0933 28.0669 40.4133 28.6135 40.28 29.1469C40.1733 29.5869 39.76 29.8935 39.32 29.8935Z" fill="#6563FF"/>
<path d="M35.4133 34.4002C35.3333 34.4002 35.2533 34.3869 35.16 34.3736L31.28 33.3869C30.7467 33.2536 30.4267 32.7069 30.56 32.1736C30.6933 31.6402 31.24 31.3202 31.7733 31.4536L35.6533 32.4402C36.1867 32.5736 36.5067 33.1202 36.3733 33.6536C36.2667 34.1069 35.8667 34.4002 35.4133 34.4002Z" fill="#6563FF"/>
</svg>
