<svg width="21" height="21" viewBox="0 0 21 21" fill="none" xmlns="http://www.w3.org/2000/svg">
<rect width="20" height="20" transform="translate(0.5 0.739197)" fill="none"/>
<path d="M15.432 12.6726C15.2162 12.8818 15.117 13.1843 15.1662 13.4809L15.907 17.5809C15.9695 17.9284 15.8228 18.2801 15.532 18.4809C15.247 18.6893 14.8678 18.7143 14.557 18.5476L10.8662 16.6226C10.7378 16.5543 10.5953 16.5176 10.4495 16.5134H10.2237C10.1453 16.5251 10.0687 16.5501 9.99866 16.5884L6.30699 18.5226C6.12449 18.6143 5.91782 18.6468 5.71532 18.6143C5.22199 18.5209 4.89282 18.0509 4.97366 17.5551L5.71532 13.4551C5.76449 13.1559 5.66532 12.8518 5.44949 12.6393L2.44032 9.7226C2.18866 9.47843 2.10116 9.11177 2.21616 8.78093C2.32782 8.45093 2.61282 8.2101 2.95699 8.15593L7.09866 7.5551C7.41366 7.5226 7.69032 7.33094 7.83199 7.0476L9.65699 3.30593C9.70032 3.2226 9.75616 3.14593 9.82366 3.08093L9.89866 3.0226C9.93782 2.97927 9.98282 2.94343 10.0328 2.91427L10.1237 2.88093L10.2653 2.8226H10.6162C10.9295 2.8551 11.2053 3.0426 11.3495 3.3226L13.1987 7.0476C13.332 7.3201 13.5912 7.50927 13.8903 7.5551L18.032 8.15593C18.382 8.20594 18.6745 8.4476 18.7903 8.78093C18.8995 9.1151 18.8053 9.48177 18.5487 9.7226L15.432 12.6726Z" fill="#FEA62E"/>
</svg>
