<svg width="20" height="21" viewBox="0 0 20 21" fill="none" xmlns="http://www.w3.org/2000/svg">
<path d="M2.91852 7.34607H17.0852L14.5852 17.7627H5.41852L2.91852 7.34607Z" fill="#E1DCFA"/>
<path d="M11.6685 15.6794C11.8895 15.6794 12.1015 15.5916 12.2578 15.4353C12.4141 15.279 12.5019 15.067 12.5019 14.846V13.1794C12.5019 12.9584 12.4141 12.7464 12.2578 12.5901C12.1015 12.4338 11.8895 12.346 11.6685 12.346C11.4475 12.346 11.2356 12.4338 11.0793 12.5901C10.923 12.7464 10.8352 12.9584 10.8352 13.1794V14.846C10.8352 15.067 10.923 15.279 11.0793 15.4353C11.2356 15.5916 11.4475 15.6794 11.6685 15.6794ZM8.3352 15.6794C8.55621 15.6794 8.76817 15.5916 8.92445 15.4353C9.08073 15.279 9.16853 15.067 9.16853 14.846V13.1794C9.16853 12.9584 9.08073 12.7464 8.92445 12.5901C8.76817 12.4338 8.55621 12.346 8.3352 12.346C8.11418 12.346 7.90222 12.4338 7.74594 12.5901C7.58966 12.7464 7.50186 12.9584 7.50186 13.1794V14.846C7.50186 15.067 7.58966 15.279 7.74594 15.4353C7.90222 15.5916 8.11418 15.6794 8.3352 15.6794ZM15.8352 5.67936H14.6852L13.2435 2.80436C13.1995 2.69858 13.1341 2.60301 13.0514 2.52364C12.9688 2.44427 12.8706 2.38279 12.7631 2.34307C12.6557 2.30334 12.5411 2.2862 12.4267 2.29274C12.3123 2.29927 12.2005 2.32933 12.0982 2.38104C11.9959 2.43275 11.9054 2.50499 11.8324 2.59325C11.7593 2.68152 11.7052 2.78391 11.6735 2.89403C11.6417 3.00414 11.6331 3.11962 11.648 3.23324C11.6629 3.34686 11.7011 3.45617 11.7602 3.55436L12.8185 5.67936H7.18519L8.24353 3.55436C8.32442 3.36012 8.32883 3.14247 8.25588 2.9451C8.18293 2.74774 8.03802 2.58528 7.85025 2.49034C7.66247 2.39539 7.44573 2.375 7.24354 2.43325C7.04135 2.49149 6.86868 2.62407 6.76019 2.80436L5.31853 5.67936H4.16853C3.57952 5.68832 3.01259 5.90499 2.56774 6.29114C2.12288 6.6773 1.82867 7.20814 1.737 7.79004C1.64533 8.37194 1.76209 8.96752 2.06668 9.47174C2.37127 9.97596 2.84413 10.3564 3.40186 10.546L4.01853 16.7627C4.08071 17.3815 4.37132 17.9549 4.83359 18.371C5.29586 18.787 5.89661 19.0158 6.51853 19.0127H13.5019C14.1238 19.0158 14.7245 18.787 15.1868 18.371C15.6491 17.9549 15.9397 17.3815 16.0019 16.7627L16.6185 10.546C17.1775 10.3559 17.6511 9.974 17.9555 9.4681C18.2598 8.96219 18.3753 8.36489 18.2815 7.78198C18.1877 7.19908 17.8906 6.66819 17.4428 6.28334C16.9951 5.8985 16.4256 5.68454 15.8352 5.67936ZM14.3269 16.596C14.3061 16.8023 14.2093 16.9934 14.0552 17.1321C13.9011 17.2708 13.7008 17.3471 13.4935 17.346H6.5102C6.30289 17.3471 6.10264 17.2708 5.94855 17.1321C5.79446 16.9934 5.69759 16.8023 5.67686 16.596L5.0852 10.6794H14.9185L14.3269 16.596ZM15.8352 9.0127H4.16853C3.94751 9.0127 3.73555 8.9249 3.57927 8.76862C3.42299 8.61234 3.3352 8.40038 3.3352 8.17936C3.3352 7.95835 3.42299 7.74639 3.57927 7.59011C3.73555 7.43383 3.94751 7.34603 4.16853 7.34603H15.8352C16.0562 7.34603 16.2682 7.43383 16.4245 7.59011C16.5807 7.74639 16.6685 7.95835 16.6685 8.17936C16.6685 8.40038 16.5807 8.61234 16.4245 8.76862C16.2682 8.9249 16.0562 9.0127 15.8352 9.0127Z" fill="#644AE2"/>
</svg>
